<svg width="68" height="18" viewBox="0 0 68 18" fill="none" xmlns="http://www.w3.org/2000/svg">
<path d="M66.8672 9.00012L67.5149 9.76199C67.7384 9.57199 67.8672 9.29345 67.8672 9.00012C67.8672 8.70679 67.7384 8.42826 67.5149 8.23826L66.8672 9.00012ZM56.8098 16.2383C56.3891 16.596 56.338 17.2271 56.6957 17.6479C57.0534 18.0686 57.6845 18.1197 58.1053 17.762L56.8098 16.2383ZM58.1053 0.238256C57.6845 -0.119478 57.0534 -0.0683794 56.6957 0.352388C56.338 0.773155 56.3891 1.40425 56.8098 1.76199L58.1053 0.238256ZM66.2195 8.23826L56.8098 16.2383L58.1053 17.762L67.5149 9.76199L66.2195 8.23826ZM56.8098 1.76199L66.2195 9.76199L67.5149 8.23826L58.1053 0.238256L56.8098 1.76199Z" fill="#D7AD45"/>
<path d="M65.9262 9.00012H1" stroke="#D7AD45" stroke-width="2" stroke-linecap="round"/>
</svg>
