<svg width="12" height="18" viewBox="0 0 12 18" fill="none" xmlns="http://www.w3.org/2000/svg">
<path d="M1 9L0.375305 9.78087C0.13809 9.5911 -9.90216e-08 9.30378 -9.5399e-08 9C-9.17765e-08 8.69622 0.13809 8.4089 0.375305 8.21913L1 9ZM11.6247 16.2191C12.056 16.5641 12.1259 17.1934 11.7809 17.6247C11.4359 18.056 10.8066 18.1259 10.3753 17.7809L11.6247 16.2191ZM10.3753 0.219131C10.8066 -0.125878 11.4359 -0.0559568 11.7809 0.375305C12.1259 0.806567 12.056 1.43586 11.6247 1.78087L10.3753 0.219131ZM1.62469 8.21913L11.6247 16.2191L10.3753 17.7809L0.375305 9.78087L1.62469 8.21913ZM11.6247 1.78087L1.62469 9.78087L0.375305 8.21913L10.3753 0.219131L11.6247 1.78087Z" fill="#D7AD45"/>
</svg>
