<svg width="12" height="8" viewBox="0 0 12 8" fill="none" xmlns="http://www.w3.org/2000/svg">
<path d="M6 7L5.61589 7.32009C5.71089 7.43409 5.85161 7.5 6 7.5C6.14839 7.5 6.28911 7.43409 6.38411 7.32009L6 7ZM1.38411 0.679908C1.20733 0.467769 0.892046 0.439107 0.679907 0.61589C0.467769 0.792672 0.439107 1.10795 0.615889 1.32009L1.38411 0.679908ZM11.3841 1.32009C11.5609 1.10796 11.5322 0.792673 11.3201 0.615891C11.108 0.439108 10.7927 0.46777 10.6159 0.679909L11.3841 1.32009ZM6.38411 6.67991L1.38411 0.679908L0.615889 1.32009L5.61589 7.32009L6.38411 6.67991ZM10.6159 0.679909L5.61589 6.67991L6.38411 7.32009L11.3841 1.32009L10.6159 0.679909Z" fill="#1F1F1F"/>
</svg>
