<svg width="22" height="20" viewBox="0 0 22 20" fill="none" xmlns="http://www.w3.org/2000/svg">
<path d="M7.43128 13.1455H7.43224C7.43305 13.1455 7.43385 13.1453 7.43466 13.1453H18.6556C18.9318 13.1453 19.1747 12.9621 19.2506 12.6964L21.7262 4.03186C21.7796 3.84507 21.7422 3.64425 21.6253 3.4892C21.5083 3.33415 21.3254 3.24293 21.1312 3.24293H6.00394L5.56152 1.25198C5.49851 0.968798 5.2474 0.767334 4.95729 0.767334H1.2439C0.902054 0.767334 0.625 1.04439 0.625 1.38623C0.625 1.72808 0.902054 2.00513 1.2439 2.00513H4.46088C4.53921 2.35794 6.57803 11.5328 6.69537 12.0606C6.03762 12.3465 5.57619 13.0024 5.57619 13.7642C5.57619 14.788 6.40913 15.6209 7.43289 15.6209H18.6556C18.9974 15.6209 19.2745 15.3439 19.2745 15.002C19.2745 14.6602 18.9974 14.3831 18.6556 14.3831H7.43289C7.09169 14.3831 6.81399 14.1054 6.81399 13.7642C6.81399 13.4235 7.09072 13.1463 7.43128 13.1455ZM20.3107 4.48073L18.1887 11.9075H7.9293L6.2789 4.48073H20.3107Z" fill="#D7AD45"/>
<path d="M6.81396 17.4776C6.81396 18.5014 7.6469 19.3343 8.67066 19.3343C9.69442 19.3343 10.5274 18.5014 10.5274 17.4776C10.5274 16.4538 9.69442 15.6209 8.67066 15.6209C7.6469 15.6209 6.81396 16.4538 6.81396 17.4776ZM8.67066 16.8587C9.01186 16.8587 9.28956 17.1364 9.28956 17.4776C9.28956 17.8188 9.01186 18.0965 8.67066 18.0965C8.32946 18.0965 8.05176 17.8188 8.05176 17.4776C8.05176 17.1364 8.32946 16.8587 8.67066 16.8587Z" fill="#D7AD45"/>
<path d="M15.5611 17.4776C15.5611 18.5014 16.394 19.3343 17.4178 19.3343C18.4416 19.3343 19.2745 18.5014 19.2745 17.4776C19.2745 16.4538 18.4416 15.6209 17.4178 15.6209C16.394 15.6209 15.5611 16.4538 15.5611 17.4776ZM17.4178 16.8587C17.759 16.8587 18.0367 17.1364 18.0367 17.4776C18.0367 17.8188 17.759 18.0965 17.4178 18.0965C17.0766 18.0965 16.7989 17.8188 16.7989 17.4776C16.7989 17.1364 17.0766 16.8587 17.4178 16.8587Z" fill="#D7AD45"/>
</svg>
