<svg width="26" height="24" viewBox="0 0 26 24" fill="none" xmlns="http://www.w3.org/2000/svg">
<path d="M8.37696 15.8714H8.37815C8.37914 15.8714 8.38013 15.8712 8.38112 15.8712H22.1915C22.5315 15.8712 22.8304 15.6456 22.9239 15.3187L25.9707 4.6546C26.0364 4.4247 25.9904 4.17753 25.8466 3.98671C25.7026 3.79588 25.4774 3.68361 25.2384 3.68361H6.62023L6.07572 1.2332C5.99816 0.884675 5.68911 0.636719 5.33205 0.636719H0.761722C0.340989 0.636719 0 0.977708 0 1.39844C0 1.81917 0.340989 2.16016 0.761722 2.16016H4.72109C4.81749 2.59438 7.32681 13.8865 7.47122 14.5362C6.66169 14.8881 6.09377 15.6952 6.09377 16.6329C6.09377 17.8929 7.11892 18.918 8.37894 18.918H22.1915C22.6122 18.918 22.9532 18.5771 22.9532 18.1563C22.9532 17.7356 22.6122 17.3946 22.1915 17.3946H8.37894C7.959 17.3946 7.61722 17.0528 7.61722 16.6329C7.61722 16.2135 7.95781 15.8723 8.37696 15.8714ZM24.2285 5.20705L21.6168 14.3477H8.9899L6.95864 5.20705H24.2285Z" fill="white"/>
<path d="M7.61719 21.2032C7.61719 22.4632 8.64234 23.4884 9.90235 23.4884C11.1624 23.4884 12.1875 22.4632 12.1875 21.2032C12.1875 19.9432 11.1624 18.918 9.90235 18.918C8.64234 18.918 7.61719 19.9432 7.61719 21.2032ZM9.90235 20.4415C10.3223 20.4415 10.6641 20.7833 10.6641 21.2032C10.6641 21.6231 10.3223 21.9649 9.90235 21.9649C9.48241 21.9649 9.14063 21.6231 9.14063 21.2032C9.14063 20.7833 9.48241 20.4415 9.90235 20.4415Z" fill="white"/>
<path d="M18.3829 21.2032C18.3829 22.4632 19.408 23.4884 20.668 23.4884C21.9281 23.4884 22.9532 22.4632 22.9532 21.2032C22.9532 19.9432 21.9281 18.918 20.668 18.918C19.408 18.918 18.3829 19.9432 18.3829 21.2032ZM20.668 20.4415C21.088 20.4415 21.4298 20.7833 21.4298 21.2032C21.4298 21.6231 21.088 21.9649 20.668 21.9649C20.2481 21.9649 19.9063 21.6231 19.9063 21.2032C19.9063 20.7833 20.2481 20.4415 20.668 20.4415Z" fill="white"/>
</svg>
