<svg width="22" height="19" viewBox="0 0 22 19" fill="none" xmlns="http://www.w3.org/2000/svg">
<path d="M1.777 1.76386C2.929 0.632203 4.45412 0.0136839 6.08184 0.0136839C7.70957 0.0136839 9.23935 0.636785 10.3914 1.76845L10.993 2.35948L11.604 1.75928C12.756 0.627622 14.2904 -6.10352e-05 15.9182 -6.10352e-05C17.5412 -6.10352e-05 19.071 0.62304 20.2183 1.75012C21.3703 2.88178 22.0046 4.38455 22 5.98354C22 7.58253 21.361 9.08072 20.209 10.2124L11.4501 18.8167C11.3288 18.9358 11.1656 18.9999 11.007 18.9999C10.8484 18.9999 10.6852 18.9404 10.5639 18.8213L1.78633 10.2307C0.634325 9.09905 2.47955e-05 7.59627 2.47955e-05 5.99729C-0.00463867 4.3983 0.624996 2.89553 1.777 1.76386ZM2.67248 9.35562L11.007 17.5109L19.3229 9.34187C20.237 8.44387 20.7407 7.25265 20.7407 5.98354C20.7407 4.71443 20.2417 3.52321 19.3275 2.62979C18.418 1.73638 17.2054 1.24156 15.9182 1.24156C14.6262 1.24156 13.4089 1.73637 12.4948 2.63437L11.4407 3.66982C11.1936 3.91265 10.7971 3.91265 10.5499 3.66982L9.5052 2.64354C8.59106 1.74554 7.37376 1.25072 6.08651 1.25072C4.79925 1.25072 3.58662 1.74554 2.67248 2.63896C1.75834 3.53695 1.2593 4.72818 1.2593 5.99729C1.25463 7.2664 1.75834 8.45762 2.67248 9.35562Z" fill="#D7AD45"/>
</svg>
