<svg width="68" height="18" viewBox="0 0 68 18" fill="none" xmlns="http://www.w3.org/2000/svg">
<path d="M66.8672 9L67.5149 9.76187C67.7384 9.57187 67.8672 9.29333 67.8672 9C67.8672 8.70667 67.7384 8.42813 67.5149 8.23813L66.8672 9ZM56.8098 16.2381C56.3891 16.5959 56.338 17.227 56.6957 17.6477C57.0534 18.0685 57.6845 18.1196 58.1053 17.7619L56.8098 16.2381ZM58.1053 0.238134C57.6845 -0.1196 57.0534 -0.0685015 56.6957 0.352266C56.338 0.773033 56.3891 1.40413 56.8098 1.76187L58.1053 0.238134ZM66.2195 8.23813L56.8098 16.2381L58.1053 17.7619L67.5149 9.76187L66.2195 8.23813ZM56.8098 1.76187L66.2195 9.76187L67.5149 8.23813L58.1053 0.238134L56.8098 1.76187Z" fill="white"/>
<path d="M65.9262 9H1" stroke="white" stroke-width="2" stroke-linecap="round"/>
</svg>
